<svg width="48" height="48" viewBox="0 0 48 48" fill="none" xmlns="http://www.w3.org/2000/svg">
<path d="M10.83 14.76C15.03 14.76 18.14 15.66 20.16 17.46C22.2 19.24 23.22 21.8 23.22 25.14C23.22 27.32 22.72 29.23 21.72 30.87C20.72 32.49 19.27 33.75 17.37 34.65C15.49 35.55 13.22 36 10.56 36C10.24 36 9.81 35.99 9.27 35.97C8.75 35.95 8.2 35.94 7.62 35.94C7.04 35.92 6.52 35.91 6.06 35.91C5.06 35.91 4.08 35.92 3.12 35.94C2.18 35.94 1.42 35.96 0.84 36V35.4C1.46 35.36 1.92 35.28 2.22 35.16C2.52 35.04 2.72 34.8 2.82 34.44C2.92 34.08 2.97 33.54 2.97 32.82V17.94C2.97 17.2 2.92 16.66 2.82 16.32C2.72 15.96 2.51 15.72 2.19 15.6C1.89 15.46 1.44 15.38 0.84 15.36V14.76C1.42 14.78 2.18 14.81 3.12 14.85C4.08 14.87 5.04 14.87 6 14.85C6.74 14.83 7.57 14.81 8.49 14.79C9.43 14.77 10.21 14.76 10.83 14.76ZM11.28 15.3C10.36 15.3 9.76 15.47 9.48 15.81C9.2 16.15 9.06 16.84 9.06 17.88V32.88C9.06 33.92 9.2 34.61 9.48 34.95C9.78 35.29 10.39 35.46 11.31 35.46C12.67 35.46 13.76 35.07 14.58 34.29C15.4 33.49 15.99 32.33 16.35 30.81C16.73 29.29 16.92 27.44 16.92 25.26C16.92 23.02 16.72 21.17 16.32 19.71C15.94 18.23 15.33 17.13 14.49 16.41C13.67 15.67 12.6 15.3 11.28 15.3ZM46.2227 14.76V15.33C45.5427 15.51 44.7827 15.84 43.9427 16.32C43.1227 16.8 42.2427 17.57 41.3027 18.63L35.7827 24.9L38.2127 21.72L45.3227 33.57C45.5827 33.99 45.8427 34.34 46.1027 34.62C46.3627 34.9 46.7127 35.16 47.1527 35.4V36C46.3127 35.96 45.4127 35.94 44.4527 35.94C43.5127 35.92 42.6127 35.91 41.7527 35.91C41.2927 35.91 40.7227 35.92 40.0427 35.94C39.3627 35.94 38.5027 35.96 37.4627 36V35.4C38.4027 35.36 38.9427 35.25 39.0827 35.07C39.2427 34.89 39.1727 34.55 38.8727 34.05L34.5227 26.7C34.3227 26.34 34.1427 26.07 33.9827 25.89C33.8227 25.71 33.6627 25.58 33.5027 25.5C33.3627 25.42 33.1727 25.37 32.9327 25.35V24.72C33.8127 24.68 34.6427 24.39 35.4227 23.85C36.2027 23.29 37.1427 22.39 38.2427 21.15L39.2627 20.01C40.1027 19.07 40.5427 18.26 40.5827 17.58C40.6427 16.88 40.4327 16.34 39.9527 15.96C39.4927 15.56 38.8827 15.35 38.1227 15.33V14.76C38.6827 14.78 39.2027 14.8 39.6827 14.82C40.1827 14.82 40.7027 14.83 41.2427 14.85C41.8027 14.85 42.4527 14.85 43.1927 14.85C43.8327 14.85 44.3927 14.84 44.8727 14.82C45.3727 14.8 45.8227 14.78 46.2227 14.76ZM35.2427 14.76V15.36C34.6427 15.38 34.1827 15.46 33.8627 15.6C33.5627 15.72 33.3627 15.96 33.2627 16.32C33.1627 16.66 33.1127 17.2 33.1127 17.94V32.82C33.1127 33.54 33.1627 34.08 33.2627 34.44C33.3827 34.8 33.5927 35.04 33.8927 35.16C34.1927 35.28 34.6427 35.36 35.2427 35.4V36C34.6627 35.96 33.9127 35.94 32.9927 35.94C32.0927 35.92 31.1727 35.91 30.2327 35.91C29.1527 35.91 28.1327 35.92 27.1727 35.94C26.2327 35.94 25.4727 35.96 24.8927 36V35.4C25.5127 35.36 25.9727 35.28 26.2727 35.16C26.5727 35.04 26.7727 34.8 26.8727 34.44C26.9727 34.08 27.0227 33.54 27.0227 32.82V17.94C27.0227 17.2 26.9727 16.66 26.8727 16.32C26.7727 15.96 26.5627 15.72 26.2427 15.6C25.9427 15.46 25.4927 15.38 24.8927 15.36V14.76C25.4727 14.78 26.2327 14.8 27.1727 14.82C28.1327 14.84 29.1527 14.85 30.2327 14.85C31.1727 14.85 32.0927 14.84 32.9927 14.82C33.9127 14.8 34.6627 14.78 35.2427 14.76Z" fill="#6CABDD"/>
</svg>
