<svg xmlns="http://www.w3.org/2000/svg" viewBox="0 0 34.1 212.56"><path d="M4.49,28.9a49.21,49.21,0,0,1-.77-5.35,23.67,23.67,0,0,1,.15-4.76c0-.32,1-.74,1.52-.65s1.23.8,1.2,1.15C6.32,22,6,24.71,5.86,27.45a6,6,0,0,1-.07,1.42c-.06.19-.54.37-.82.36S4.52,28.92,4.49,28.9Z" fill="#020202"/><path d="M5.77,36.44c1,.23,1.05,1,1.22,1.68.36,1.42.53,2.78.92,4.16a8.69,8.69,0,0,0,.93,2.78c.41.59.38,1-.17,1.76a.43.43,0,0,1-.43.06C6.49,45,5.68,42.7,4.74,40.27c-.2-.49-.43-.94-.63-1.42A1.84,1.84,0,0,1,5.77,36.44Z" fill="#020202"/><path d="M6.21,8.93c.08-1.45.53-3.83.66-4.86a15.56,15.56,0,0,1,.47-3A2.44,2.44,0,0,1,8.59,0c.15-.08.56.4.85.63,1.22,1,.35,2,.1,3S8.08,7.43,7.9,8.54c-.19,1.28-.52,1.39-1.59.67C6.16,9.11,6.16,8.77,6.21,8.93Z" fill="#020202"/><path d="M32.38,70.33a15.32,15.32,0,0,0-.92-4.9,19.29,19.29,0,0,0-1.9-3.9c-.06-.1,0-.31.14-.55a2.4,2.4,0,0,1,.79-.87,1.84,1.84,0,0,1,.89-.11,1.35,1.35,0,0,1,.89.31,11.88,11.88,0,0,1,1.62,4.09A15.45,15.45,0,0,1,34,68.8a4.73,4.73,0,0,1-.26,1.5,1.22,1.22,0,0,1-.89.36C32.6,70.64,32.4,70.35,32.38,70.33Z" fill="#020202"/><path d="M30.63,77.66c.73.68.23,1.46-.12,2.13a18.29,18.29,0,0,1-2.93,3.84,25.87,25.87,0,0,0-2.21,2.24c-.44.63-.93.73-1.73.39a.47.47,0,0,1-.17-.4c1.25-2.13,2.82-3.9,3.84-6a8.62,8.62,0,0,0,.46-1.29A2.19,2.19,0,0,1,30.63,77.66Z" fill="#020202"/><path d="M22.56,55.58,18,54.29A14,14,0,0,1,15,53.43,2.22,2.22,0,0,1,14.13,52c-.05-.16.52-.46.79-.71a1.45,1.45,0,0,1,1.51-.39c.46.16.92.5,1.4.69s1.4.68,2.34,1.16a24.44,24.44,0,0,0,2.5,1.17c1.33.48,1.29.8.2,1.62C22.71,55.66,22.38,55.59,22.56,55.58Z" fill="#020202"/><path d="M17,120.45c-.61-1.89-1.29-3.43-1.77-5a24.21,24.21,0,0,1-1-4.65c0-.33.85-1,1.32-1s1.39.48,1.45.83l1.13,8.18a5.13,5.13,0,0,1,.16,1.44c0,.21-.48.46-.76.48S17.05,120.47,17,120.45Z" fill="#020202"/><path d="M18.8,127.91c1,.27,1,1.12,1.14,1.83a32.34,32.34,0,0,1,.09,4.62,26.3,26.3,0,0,0-.28,3.15c.07.77-.24,1.16-1.08,1.4a.46.46,0,0,1-.38-.21c-.2-1.22-.29-2.4-.38-3.58a34.88,34.88,0,0,0-.51-3.55c-.1-.48-.27-.94-.41-1.41A1.88,1.88,0,0,1,18.8,127.91Z" fill="#020202"/><path d="M15,100.51a15.92,15.92,0,0,1,.41-2.65c.23-.92.5-1.77.66-2.28a11,11,0,0,1,1.1-2.91,2.35,2.35,0,0,1,1.51-.75c.16,0,.43.54.65.83.91,1.23-.12,2-.57,2.86-.23.47-.75,1.3-1.19,2.18a9.37,9.37,0,0,0-.88,2.32c-.19,1.23-.48,1.36-1.58.68C15,100.69,15,100.34,15,100.51Z" fill="#020202"/><path d="M13.87,175.12c.08-2,.09-3.67.23-5.34a31.17,31.17,0,0,1,.67-4.62c.07-.3,1.09-.66,1.55-.54s1.2.89,1.12,1.25c-.52,2.74-1.21,5.43-1.92,8.12a6,6,0,0,1-.37,1.39c-.1.18-.61.25-.88.17S13.89,175.15,13.87,175.12Z" fill="#020202"/><path d="M13,182.74c.85.56.61,1.37.49,2.07a28.65,28.65,0,0,1-1.24,4.41,24.2,24.2,0,0,0-1.07,2.94c-.13.76-.53,1.06-1.4,1.08-.11,0-.33-.2-.32-.29.25-2.47.85-4.68,1.08-7.15a14.62,14.62,0,0,0,0-1.48A1.88,1.88,0,0,1,13,182.74Z" fill="#020202"/><path d="M17,155.44c0-1.44.06-3.83,0-4.84a22.45,22.45,0,0,1-.15-2.94,2.47,2.47,0,0,1,1-1.33c.13-.1.64.26,1,.41,1.41.65.8,1.86.74,2.93s-.86,4.09-.91,5.22c-.08,1.32-.41,1.44-1.53.82C17,155.62,17,155.28,17,155.44Z" fill="#020202"/><path d="M13.31,203.86a19.81,19.81,0,0,0,1-1.92l.11-.24.06-.13c0-.09.07-.19.09-.28s.17-.42,0-.51a21.26,21.26,0,0,0-3.48-.57l-4.22-.42a26.55,26.55,0,0,0-3.65-.21,2.28,2.28,0,0,0-.76.13c-.18,0-.14.24-.11.35a2.37,2.37,0,0,0,.09.34l.31.79c.28.68.6,1.45,1.2,2.78.16.42,1.36,3.14,1.58,3.53a6.62,6.62,0,0,0,.73,1.13c.26.34.6.58.83.91s.58,1,.77,1.19a.2.2,0,0,1,0,.11.28.28,0,0,0-.06.09,1.58,1.58,0,0,0-.3,1.12.4.4,0,0,1-.33.49,1.78,1.78,0,0,1-1.22-.31,6.74,6.74,0,0,1-2.08-2.42,40.45,40.45,0,0,1-2.34-5.11C1.18,203.83.86,203,.57,202l-.21-.71a11.26,11.26,0,0,1-.3-1.21,3,3,0,0,1,0-1.15,3.21,3.21,0,0,1,.24-.45l.07-.12h0l0,0h0l0,0,0-.05a1.53,1.53,0,0,1,.18-.18,3.45,3.45,0,0,1,.66-.35,5.54,5.54,0,0,1,1.5-.27l.38,0H3.8c.59,0,1.17,0,1.74.05,1.15.06,2.28.17,3.4.3s2.25.29,3.38.47c.56.1,1.13.2,1.7.32l.57.14a6.06,6.06,0,0,1,.7.19,2.88,2.88,0,0,1,1.14.64,2,2,0,0,1,.35,1.11,4.31,4.31,0,0,1-.31,1.3,6.27,6.27,0,0,1-.27.63L16,203l-.37.76a36.55,36.55,0,0,1-3.83,5.82,10.57,10.57,0,0,1-2.15,2.18,3,3,0,0,1-1.28.54c-.41.06-.85-.13-.88-.44a5.73,5.73,0,0,0,.5-1.15,14,14,0,0,1,.51-1.43A5,5,0,0,1,9.67,208c1.22-.41,2.15-1.85,3-3.13C12.89,204.55,13.1,204.21,13.31,203.86Z" fill="#020202"/></svg>